<svg xmlns="http://www.w3.org/2000/svg" xmlns:xlink="http://www.w3.org/1999/xlink" width="500" zoomAndPan="magnify" viewBox="0 0 375 52.499999" height="70" preserveAspectRatio="xMidYMid meet" version="1.2"><defs><clipPath id="02cb8a0974"><path d="M 25 7 L 343 7 L 343 47 L 25 47 Z M 25 7 "/></clipPath><clipPath id="8a92655a75"><path d="M 342.113281 42.5 L 341.816406 41.980469 L 340.628906 39.886719 L 340.335938 39.367188 L 339.148438 37.273438 L 338.851562 36.753906 L 338.558594 36.230469 L 337.667969 34.660156 L 337.371094 34.140625 L 337.078125 33.617188 L 336.484375 32.570312 L 336.1875 32.050781 L 335.59375 31.003906 L 335.300781 30.480469 L 335.003906 29.957031 L 334.707031 29.4375 L 333.816406 27.867188 L 333.523438 27.34375 L 333.226562 26.824219 L 332.335938 25.253906 L 332.042969 24.730469 L 331.746094 24.210938 L 330.558594 22.117188 L 330.265625 21.597656 L 329.375 20.027344 L 329.078125 19.507812 L 328.78125 18.984375 L 328.488281 18.460938 L 327.894531 17.414062 L 327.597656 16.894531 L 327.300781 16.371094 L 327.007812 15.847656 L 326.414062 14.800781 L 326.117188 14.28125 L 325.523438 13.234375 L 324.449219 13.234375 L 324.15625 12.710938 L 322.414062 9.835938 L 320.675781 12.710938 L 319.785156 14.28125 L 319.488281 14.800781 L 319.195312 15.324219 L 318.304688 16.894531 L 318.007812 17.414062 L 317.710938 17.9375 L 317.417969 18.460938 L 316.824219 19.507812 L 316.527344 20.027344 L 316.230469 20.550781 L 315.9375 21.074219 L 315.34375 22.121094 L 315.046875 22.640625 L 314.453125 23.6875 L 314.160156 24.210938 L 313.863281 24.730469 L 312.675781 26.824219 L 312.382812 27.34375 L 311.195312 29.4375 L 310.382812 29.660156 L 310.085938 30.183594 L 309.789062 30.703125 L 309.492188 31.226562 L 309.199219 31.75 L 308.605469 32.796875 L 308.308594 33.316406 L 307.714844 34.363281 L 307.421875 34.886719 L 307.125 35.410156 L 306.828125 35.929688 L 305.9375 37.5 L 305.644531 38.023438 L 305.347656 38.542969 L 304.457031 40.113281 L 304.164062 40.632812 L 302.605469 43.097656 L 309.125 43.097656 L 309.417969 42.6875 L 309.714844 42.164062 L 310.011719 41.644531 L 310.902344 40.074219 L 311.195312 39.550781 L 311.492188 39.03125 L 312.085938 37.984375 L 312.457031 37.425781 L 332.597656 37.425781 L 332.964844 37.910156 L 333.300781 38.507812 L 333.597656 39.03125 L 333.890625 39.550781 L 335.078125 41.644531 L 335.375 42.164062 L 335.667969 42.6875 L 335.929688 43.097656 L 342.445312 43.097656 Z M 315.789062 31.675781 L 316.269531 30.890625 L 316.566406 30.40625 L 316.859375 29.921875 L 317.15625 29.4375 L 317.453125 28.949219 L 318.34375 27.496094 L 318.636719 27.007812 L 319.527344 25.554688 L 319.824219 25.066406 L 320.121094 24.582031 L 320.414062 24.097656 L 321.007812 23.128906 L 321.304688 22.640625 L 321.601562 22.15625 L 321.894531 21.671875 L 322.117188 21.335938 L 322.339844 21.671875 L 322.933594 22.640625 L 323.230469 23.128906 L 323.527344 23.613281 L 323.820312 24.097656 L 324.414062 25.066406 L 324.710938 25.554688 L 325.007812 26.039062 L 325.300781 26.523438 L 325.597656 27.007812 L 325.894531 27.496094 L 326.785156 28.949219 L 327.078125 29.4375 L 327.96875 30.890625 L 328.414062 31.675781 Z M 294.535156 18.945312 C 294.535156 18.757812 294.5 18.609375 294.5 18.460938 C 294.460938 18.273438 294.460938 18.125 294.425781 17.976562 C 294.386719 17.789062 294.351562 17.640625 294.3125 17.492188 C 294.277344 17.304688 294.238281 17.152344 294.203125 17.003906 C 294.164062 16.816406 294.089844 16.667969 294.054688 16.519531 C 293.980469 16.332031 293.945312 16.183594 293.871094 16.035156 C 293.796875 15.847656 293.722656 15.699219 293.648438 15.550781 C 293.574219 15.363281 293.460938 15.214844 293.386719 15.0625 C 293.277344 14.878906 293.203125 14.726562 293.09375 14.578125 C 292.980469 14.390625 292.871094 14.242188 292.757812 14.09375 C 292.648438 13.90625 292.5 13.757812 292.351562 13.609375 C 290.539062 11.40625 287.835938 10.136719 285.019531 10.136719 L 261.25 10.136719 L 261.25 43.097656 L 266.804688 43.097656 L 266.804688 29.546875 L 279.726562 29.546875 L 287.871094 43.136719 L 294.722656 43.136719 L 286.464844 29.285156 C 286.464844 29.285156 287.945312 28.6875 288.5 28.503906 C 288.871094 28.351562 289.242188 28.203125 289.574219 28.015625 C 289.871094 27.867188 290.128906 27.679688 290.390625 27.53125 C 290.613281 27.382812 290.832031 27.195312 291.054688 27.046875 C 291.242188 26.898438 291.425781 26.710938 291.609375 26.5625 C 291.796875 26.410156 291.945312 26.226562 292.09375 26.074219 C 292.242188 25.925781 292.386719 25.738281 292.5 25.589844 C 292.609375 25.441406 292.757812 25.253906 292.871094 25.105469 C 292.980469 24.957031 293.09375 24.769531 293.203125 24.621094 C 293.3125 24.472656 293.386719 24.285156 293.460938 24.136719 C 293.535156 23.984375 293.609375 23.800781 293.722656 23.648438 C 293.796875 23.5 293.871094 23.3125 293.945312 23.164062 C 294.015625 23.015625 294.054688 22.828125 294.128906 22.679688 C 294.164062 22.53125 294.238281 22.34375 294.277344 22.195312 C 294.3125 22.042969 294.351562 21.859375 294.386719 21.707031 C 294.425781 21.558594 294.460938 21.371094 294.460938 21.222656 C 294.5 21.074219 294.5 20.886719 294.535156 20.738281 C 294.535156 20.589844 294.574219 20.402344 294.574219 20.253906 C 294.574219 20.101562 294.574219 19.992188 294.574219 19.84375 C 294.574219 19.804688 294.574219 19.765625 294.574219 19.730469 C 294.535156 19.246094 294.535156 19.09375 294.535156 18.945312 Z M 288.980469 19.917969 C 288.910156 20.664062 288.648438 21.335938 288.203125 21.933594 C 288.058594 22.121094 287.910156 22.269531 287.761719 22.417969 C 287.574219 22.605469 287.351562 22.792969 287.132812 22.941406 C 286.796875 23.164062 286.425781 23.386719 286.019531 23.539062 C 285.6875 23.6875 285.316406 23.761719 284.984375 23.761719 L 266.730469 23.761719 L 266.769531 23.425781 L 266.769531 15.472656 L 284.984375 15.472656 C 285.613281 15.472656 286.242188 15.625 286.796875 15.921875 C 287.613281 16.371094 288.277344 17.078125 288.6875 17.9375 C 288.871094 18.421875 288.980469 18.945312 289.019531 19.429688 C 289.019531 19.46875 289.019531 19.507812 289.019531 19.542969 C 289.019531 19.65625 289.019531 19.804688 288.980469 19.917969 Z M 125.78125 33.058594 C 125.78125 33.132812 125.78125 33.242188 125.78125 33.316406 C 125.78125 33.394531 125.78125 33.46875 125.78125 33.542969 C 125.78125 33.730469 125.78125 33.878906 125.746094 34.027344 C 125.746094 34.214844 125.707031 34.363281 125.707031 34.511719 C 125.671875 34.699219 125.671875 34.847656 125.632812 34.996094 C 125.597656 35.183594 125.558594 35.332031 125.523438 35.484375 C 125.484375 35.667969 125.449219 35.820312 125.375 35.96875 C 125.335938 36.15625 125.261719 36.304688 125.226562 36.453125 C 125.152344 36.640625 125.113281 36.789062 125.039062 36.9375 C 124.964844 37.125 124.894531 37.273438 124.820312 37.425781 C 124.746094 37.609375 124.632812 37.761719 124.558594 37.910156 C 124.449219 38.097656 124.375 38.246094 124.261719 38.394531 C 124.152344 38.582031 124.042969 38.730469 123.929688 38.878906 C 123.78125 39.066406 123.671875 39.214844 123.523438 39.367188 C 123.375 39.550781 123.226562 39.703125 123.042969 39.851562 C 122.855469 40.039062 122.671875 40.1875 122.484375 40.335938 C 122.265625 40.523438 122.078125 40.671875 121.855469 40.820312 C 121.597656 41.007812 121.339844 41.15625 121.078125 41.308594 C 120.746094 41.492188 120.414062 41.679688 120.078125 41.792969 C 119.597656 42.015625 119.078125 42.164062 118.5625 42.277344 C 117.785156 42.464844 116.96875 42.574219 116.117188 42.574219 L 92.609375 42.5 L 95.902344 37.015625 L 116.265625 37.089844 C 117.117188 37.089844 117.96875 36.789062 118.671875 36.265625 C 119.191406 35.894531 119.636719 35.371094 119.894531 34.773438 C 120.117188 34.289062 120.265625 33.804688 120.265625 33.28125 C 120.265625 33.207031 120.265625 33.132812 120.265625 33.058594 C 120.265625 32.980469 120.265625 32.871094 120.265625 32.796875 C 120.152344 31.226562 119.152344 29.847656 117.710938 29.285156 C 117.230469 29.136719 116.746094 29.0625 116.265625 29.101562 L 102.121094 29.136719 C 101.417969 29.101562 100.714844 29.023438 100.011719 28.875 C 99.457031 28.726562 98.9375 28.539062 98.421875 28.316406 C 98.085938 28.167969 97.753906 27.980469 97.421875 27.792969 C 97.160156 27.644531 96.902344 27.457031 96.679688 27.269531 C 96.457031 27.121094 96.234375 26.933594 96.050781 26.75 C 95.867188 26.597656 95.679688 26.410156 95.496094 26.261719 C 95.347656 26.113281 95.164062 25.925781 95.015625 25.777344 C 94.867188 25.628906 94.71875 25.441406 94.605469 25.292969 C 94.496094 25.144531 94.347656 24.957031 94.238281 24.808594 C 94.125 24.65625 94.015625 24.472656 93.941406 24.320312 C 93.828125 24.171875 93.753906 23.984375 93.679688 23.835938 C 93.609375 23.6875 93.535156 23.5 93.460938 23.351562 C 93.386719 23.203125 93.3125 23.015625 93.238281 22.867188 C 93.164062 22.714844 93.125 22.53125 93.050781 22.378906 C 93.015625 22.230469 92.941406 22.042969 92.902344 21.894531 C 92.867188 21.746094 92.828125 21.558594 92.792969 21.410156 C 92.757812 21.261719 92.71875 21.074219 92.71875 20.925781 C 92.683594 20.773438 92.683594 20.589844 92.644531 20.4375 C 92.644531 20.289062 92.609375 20.101562 92.609375 19.953125 C 92.609375 19.84375 92.609375 19.730469 92.609375 19.582031 C 92.609375 19.542969 92.609375 19.46875 92.609375 19.429688 C 92.609375 19.246094 92.609375 19.09375 92.644531 18.945312 C 92.644531 18.757812 92.683594 18.609375 92.683594 18.460938 C 92.71875 18.273438 92.71875 18.125 92.757812 17.976562 C 92.792969 17.789062 92.828125 17.640625 92.867188 17.492188 C 92.902344 17.304688 92.941406 17.15625 92.976562 17.003906 C 93.015625 16.816406 93.089844 16.667969 93.125 16.519531 C 93.199219 16.332031 93.238281 16.183594 93.3125 16.035156 C 93.386719 15.847656 93.460938 15.699219 93.535156 15.550781 C 93.609375 15.363281 93.71875 15.214844 93.792969 15.0625 C 93.902344 14.878906 93.976562 14.726562 94.089844 14.578125 C 94.199219 14.390625 94.3125 14.242188 94.421875 14.09375 C 94.53125 13.90625 94.679688 13.757812 94.828125 13.609375 C 96.644531 11.40625 99.308594 10.136719 102.160156 10.136719 L 125.890625 10.097656 L 122.410156 15.734375 L 102.160156 15.734375 C 101.234375 15.734375 100.347656 16.070312 99.640625 16.632812 C 99.160156 17.042969 98.753906 17.566406 98.496094 18.125 C 98.273438 18.609375 98.160156 19.09375 98.160156 19.617188 C 98.160156 19.65625 98.160156 19.730469 98.160156 19.765625 C 98.160156 19.878906 98.160156 19.992188 98.160156 20.140625 C 98.160156 20.328125 98.199219 20.476562 98.234375 20.625 C 98.308594 20.960938 98.421875 21.296875 98.605469 21.632812 C 98.902344 22.230469 99.382812 22.753906 99.9375 23.128906 C 100.234375 23.351562 100.566406 23.539062 100.902344 23.6875 C 101.308594 23.875 101.714844 23.984375 102.160156 24.023438 L 116.265625 24.023438 C 117.082031 24.023438 117.894531 24.097656 118.710938 24.171875 C 119.226562 24.246094 119.710938 24.394531 120.152344 24.621094 C 120.488281 24.769531 120.820312 24.917969 121.117188 25.105469 C 121.375 25.253906 121.632812 25.441406 121.894531 25.589844 C 122.117188 25.738281 122.339844 25.925781 122.523438 26.074219 C 122.707031 26.226562 122.894531 26.410156 123.078125 26.5625 C 123.226562 26.710938 123.375 26.898438 123.523438 27.046875 C 123.671875 27.195312 123.78125 27.382812 123.929688 27.53125 C 124.042969 27.679688 124.152344 27.867188 124.261719 28.015625 C 124.375 28.167969 124.484375 28.351562 124.558594 28.503906 C 124.671875 28.652344 124.746094 28.839844 124.820312 28.988281 C 124.894531 29.136719 124.964844 29.324219 125.039062 29.472656 C 125.113281 29.621094 125.1875 29.808594 125.226562 29.957031 C 125.300781 30.109375 125.335938 30.292969 125.375 30.445312 C 125.410156 30.59375 125.484375 30.78125 125.523438 30.929688 C 125.558594 31.078125 125.597656 31.265625 125.632812 31.414062 C 125.671875 31.5625 125.707031 31.75 125.707031 31.898438 C 125.746094 32.050781 125.746094 32.234375 125.746094 32.386719 C 125.746094 32.722656 125.746094 32.871094 125.78125 33.058594 Z M 244.035156 15.585938 L 219.859375 15.585938 L 219.859375 9.949219 L 247.332031 9.949219 Z M 187.683594 37.351562 L 209.898438 37.351562 L 206.457031 42.835938 L 182.167969 42.835938 L 182.167969 9.949219 L 187.683594 9.949219 Z M 170.0625 19.542969 C 170.0625 19.617188 170.0625 19.691406 170.0625 19.765625 L 170.0625 22.042969 C 170.0625 22.679688 170.0625 23.277344 170.0625 23.910156 L 164.546875 23.910156 L 164.546875 19.730469 C 164.546875 19.65625 164.546875 19.582031 164.546875 19.507812 C 164.507812 18.574219 164.136719 17.714844 163.546875 17.003906 C 163.210938 16.59375 162.769531 16.257812 162.285156 15.996094 C 161.695312 15.699219 161.027344 15.511719 160.363281 15.511719 L 146.515625 15.511719 C 145.847656 15.511719 145.183594 15.660156 144.550781 15.996094 C 143.738281 16.445312 143.070312 17.152344 142.664062 18.011719 C 142.589844 18.164062 142.515625 18.347656 142.480469 18.5 C 142.441406 18.648438 142.40625 18.835938 142.367188 18.984375 C 142.332031 19.132812 142.332031 19.320312 142.332031 19.46875 C 142.332031 19.542969 142.332031 19.617188 142.332031 19.691406 L 142.332031 23.835938 L 136.8125 23.835938 C 136.8125 23.203125 136.8125 22.605469 136.8125 21.96875 L 136.8125 19.691406 C 136.8125 19.617188 136.8125 19.542969 136.8125 19.46875 C 136.8125 19.28125 136.8125 19.132812 136.851562 18.984375 C 136.851562 18.796875 136.886719 18.648438 136.886719 18.5 C 136.925781 18.3125 136.925781 18.164062 136.960938 18.011719 C 137 17.828125 137.035156 17.675781 137.074219 17.527344 C 137.109375 17.339844 137.148438 17.191406 137.222656 17.042969 C 137.257812 16.855469 137.332031 16.707031 137.371094 16.558594 C 137.445312 16.371094 137.480469 16.222656 137.554688 16.070312 C 137.628906 15.886719 137.703125 15.734375 137.777344 15.585938 C 137.851562 15.398438 137.960938 15.25 138.035156 15.101562 C 138.148438 14.914062 138.222656 14.765625 138.332031 14.617188 C 138.445312 14.429688 138.554688 14.28125 138.664062 14.128906 C 138.777344 13.945312 138.925781 13.792969 139.035156 13.644531 C 140.886719 11.40625 143.625 10.097656 146.476562 10.097656 L 160.324219 10.097656 C 163.210938 10.097656 165.953125 11.40625 167.765625 13.644531 C 167.914062 13.792969 168.027344 13.980469 168.136719 14.128906 C 168.246094 14.28125 168.359375 14.464844 168.46875 14.617188 C 168.582031 14.765625 168.691406 14.953125 168.765625 15.101562 C 168.839844 15.25 168.949219 15.4375 169.023438 15.585938 C 169.097656 15.734375 169.171875 15.921875 169.246094 16.070312 C 169.320312 16.222656 169.394531 16.40625 169.433594 16.558594 C 169.507812 16.707031 169.542969 16.894531 169.582031 17.042969 C 169.617188 17.191406 169.65625 17.378906 169.730469 17.527344 C 169.765625 17.675781 169.800781 17.863281 169.839844 18.011719 C 169.875 18.164062 169.875 18.347656 169.914062 18.5 C 169.949219 18.648438 169.949219 18.835938 169.949219 18.984375 C 170.0625 19.207031 170.0625 19.355469 170.0625 19.542969 Z M 170.0625 30.78125 L 170.0625 33.09375 C 170.0625 33.09375 170.0625 33.09375 170.0625 33.132812 C 170.0625 33.316406 170.0625 33.46875 170.0625 33.617188 C 170.0625 33.804688 170.023438 33.953125 170.023438 34.101562 C 170.023438 34.289062 169.988281 34.4375 169.949219 34.585938 C 169.914062 34.773438 169.875 34.921875 169.875 35.074219 C 169.839844 35.257812 169.800781 35.410156 169.765625 35.558594 C 169.730469 35.746094 169.65625 35.894531 169.617188 36.042969 C 169.582031 36.230469 169.507812 36.378906 169.433594 36.527344 C 169.359375 36.714844 169.285156 36.863281 169.210938 37.015625 C 169.136719 37.199219 169.0625 37.351562 168.949219 37.5 C 168.878906 37.6875 168.765625 37.835938 168.65625 37.984375 C 168.542969 38.171875 168.433594 38.320312 168.320312 38.46875 C 168.210938 38.65625 168.0625 38.804688 167.953125 38.953125 C 167.804688 39.140625 167.691406 39.289062 167.542969 39.441406 C 167.394531 39.625 167.210938 39.777344 167.0625 39.925781 C 166.878906 40.113281 166.691406 40.261719 166.507812 40.410156 C 166.285156 40.597656 166.0625 40.746094 165.839844 40.894531 C 165.582031 41.082031 165.324219 41.230469 165.027344 41.382812 C 163.582031 42.164062 161.992188 42.613281 160.324219 42.613281 L 146.476562 42.613281 C 145.8125 42.613281 145.109375 42.539062 144.441406 42.390625 C 143.515625 42.203125 142.589844 41.867188 141.777344 41.382812 C 141.515625 41.230469 141.21875 41.046875 140.960938 40.894531 C 140.738281 40.746094 140.515625 40.558594 140.292969 40.410156 C 140.109375 40.261719 139.925781 40.074219 139.738281 39.925781 C 139.554688 39.777344 139.40625 39.589844 139.257812 39.441406 C 139.109375 39.289062 138.960938 39.105469 138.851562 38.953125 C 138.738281 38.804688 138.589844 38.617188 138.480469 38.46875 C 138.371094 38.320312 138.257812 38.132812 138.148438 37.984375 C 138.035156 37.835938 137.960938 37.648438 137.851562 37.5 C 137.777344 37.351562 137.664062 37.164062 137.59375 37.015625 C 137.519531 36.863281 137.445312 36.679688 137.371094 36.527344 C 137.296875 36.378906 137.257812 36.191406 137.183594 36.042969 C 137.148438 35.894531 137.074219 35.707031 137.035156 35.558594 C 137 35.410156 136.960938 35.222656 136.925781 35.074219 C 136.886719 34.921875 136.851562 34.738281 136.851562 34.585938 C 136.8125 34.4375 136.8125 34.25 136.777344 34.101562 C 136.777344 33.953125 136.742188 33.765625 136.742188 33.617188 C 136.742188 33.46875 136.742188 33.316406 136.742188 33.132812 L 136.742188 30.78125 C 136.742188 30.332031 136.742188 29.882812 136.742188 29.4375 L 142.257812 29.4375 L 142.257812 33.167969 C 142.257812 33.316406 142.257812 33.46875 142.292969 33.652344 C 142.367188 34.175781 142.515625 34.699219 142.773438 35.148438 C 143.515625 36.527344 144.921875 37.386719 146.476562 37.386719 L 160.324219 37.386719 C 161.175781 37.386719 161.992188 37.125 162.65625 36.640625 C 163.359375 36.15625 163.914062 35.445312 164.210938 34.625 C 164.324219 34.289062 164.398438 33.953125 164.472656 33.617188 C 164.472656 33.46875 164.507812 33.316406 164.507812 33.132812 L 164.507812 29.398438 L 170.0625 29.398438 Z M 225.414062 37.425781 L 248.960938 37.425781 L 245.589844 42.875 L 219.859375 42.875 L 219.859375 23.722656 L 219.820312 21.074219 L 245.515625 21.074219 L 245.515625 26.671875 L 225.375 26.671875 L 225.375 29.25 Z M 46.070312 12.710938 L 41.589844 12.710938 L 47.03125 7.222656 L 54.066406 7.222656 C 52.957031 10.472656 49.699219 12.710938 46.070312 12.710938 Z M 53.992188 40.523438 L 58.472656 40.523438 L 53.03125 46.011719 L 45.996094 46.011719 C 47.144531 42.761719 50.363281 40.523438 53.992188 40.523438 Z M 47.550781 32.199219 L 66.765625 32.199219 L 61.210938 37.6875 L 41.773438 37.6875 C 41.8125 34.660156 44.367188 32.199219 47.550781 32.199219 Z M 52.546875 21.035156 L 33.332031 21.035156 L 38.773438 15.550781 L 58.25 15.550781 C 58.285156 18.574219 55.695312 21.035156 52.546875 21.035156 Z M 30.519531 23.875 L 74.835938 23.910156 L 69.503906 29.359375 L 25.039062 29.359375 Z M 30.519531 23.875 "/></clipPath><linearGradient x1="503.76999" gradientTransform="matrix(0.370238,0,0,-0.373298,-2.786468,44.341765)" y1="99.430491" x2="503.76999" gradientUnits="userSpaceOnUse" y2="-4.469504" id="7c8f40d512"><stop style="stop-color:#ececee;stop-opacity:1;" offset="0"/><stop style="stop-color:#ececee;stop-opacity:1;" offset="0.0625"/><stop style="stop-color:#ececee;stop-opacity:1;" offset="0.09375"/><stop style="stop-color:#ececee;stop-opacity:1;" offset="0.109375"/><stop style="stop-color:#ebebed;stop-opacity:1;" offset="0.113281"/><stop style="stop-color:#eaeaec;stop-opacity:1;" offset="0.117187"/><stop style="stop-color:#e9e9eb;stop-opacity:1;" offset="0.121094"/><stop style="stop-color:#e8e8ea;stop-opacity:1;" offset="0.125"/><stop style="stop-color:#e7e7e9;stop-opacity:1;" offset="0.128906"/><stop style="stop-color:#e6e6e8;stop-opacity:1;" offset="0.132812"/><stop style="stop-color:#e5e5e7;stop-opacity:1;" offset="0.136719"/><stop style="stop-color:#e4e4e6;stop-opacity:1;" offset="0.140625"/><stop style="stop-color:#e3e3e5;stop-opacity:1;" offset="0.144531"/><stop style="stop-color:#e2e2e4;stop-opacity:1;" offset="0.148437"/><stop style="stop-color:#e1e1e3;stop-opacity:1;" offset="0.152344"/><stop style="stop-color:#e0e0e2;stop-opacity:1;" offset="0.15625"/><stop style="stop-color:#dfdfe1;stop-opacity:1;" offset="0.160156"/><stop style="stop-color:#dedee0;stop-opacity:1;" offset="0.164062"/><stop style="stop-color:#dddddf;stop-opacity:1;" offset="0.167969"/><stop style="stop-color:#dcdcde;stop-opacity:1;" offset="0.171875"/><stop style="stop-color:#dbdbdd;stop-opacity:1;" offset="0.175781"/><stop style="stop-color:#dadadc;stop-opacity:1;" offset="0.179687"/><stop style="stop-color:#d9d9db;stop-opacity:1;" offset="0.183594"/><stop style="stop-color:#d8d8da;stop-opacity:1;" offset="0.1875"/><stop style="stop-color:#d7d7d9;stop-opacity:1;" offset="0.191406"/><stop style="stop-color:#d6d6d8;stop-opacity:1;" offset="0.195312"/><stop style="stop-color:#d5d5d7;stop-opacity:1;" offset="0.199219"/><stop style="stop-color:#d4d4d6;stop-opacity:1;" offset="0.203125"/><stop style="stop-color:#d3d3d4;stop-opacity:1;" offset="0.207031"/><stop style="stop-color:#d2d2d3;stop-opacity:1;" offset="0.210937"/><stop style="stop-color:#d1d1d2;stop-opacity:1;" offset="0.214844"/><stop style="stop-color:#d0d0d1;stop-opacity:1;" offset="0.21875"/><stop style="stop-color:#cfcfd0;stop-opacity:1;" offset="0.222656"/><stop style="stop-color:#cececf;stop-opacity:1;" offset="0.226562"/><stop style="stop-color:#cdcdce;stop-opacity:1;" offset="0.230469"/><stop style="stop-color:#cccccd;stop-opacity:1;" offset="0.234375"/><stop style="stop-color:#cbcbcc;stop-opacity:1;" offset="0.238281"/><stop style="stop-color:#cacacb;stop-opacity:1;" offset="0.242187"/><stop style="stop-color:#c9c9ca;stop-opacity:1;" offset="0.246094"/><stop style="stop-color:#c8c8c9;stop-opacity:1;" offset="0.25"/><stop style="stop-color:#c7c7c8;stop-opacity:1;" offset="0.253906"/><stop style="stop-color:#c6c6c7;stop-opacity:1;" offset="0.257812"/><stop style="stop-color:#c5c5c6;stop-opacity:1;" offset="0.261719"/><stop style="stop-color:#c4c4c5;stop-opacity:1;" offset="0.265625"/><stop style="stop-color:#c3c3c4;stop-opacity:1;" offset="0.269531"/><stop style="stop-color:#c2c2c3;stop-opacity:1;" offset="0.273438"/><stop style="stop-color:#c1c1c2;stop-opacity:1;" offset="0.277344"/><stop style="stop-color:#c1c0c1;stop-opacity:1;" offset="0.28125"/><stop style="stop-color:#c0bfc0;stop-opacity:1;" offset="0.285156"/><stop style="stop-color:#bfbebf;stop-opacity:1;" offset="0.289062"/><stop style="stop-color:#bebdbe;stop-opacity:1;" offset="0.292969"/><stop style="stop-color:#bdbcbd;stop-opacity:1;" offset="0.296875"/><stop style="stop-color:#bcbbbc;stop-opacity:1;" offset="0.300781"/><stop style="stop-color:#bbbabb;stop-opacity:1;" offset="0.304688"/><stop style="stop-color:#bab9ba;stop-opacity:1;" offset="0.308594"/><stop style="stop-color:#b9b8b9;stop-opacity:1;" offset="0.3125"/><stop style="stop-color:#b8b7b8;stop-opacity:1;" offset="0.316406"/><stop style="stop-color:#b7b6b7;stop-opacity:1;" offset="0.320312"/><stop style="stop-color:#b6b4b6;stop-opacity:1;" offset="0.324219"/><stop style="stop-color:#b5b3b5;stop-opacity:1;" offset="0.328125"/><stop style="stop-color:#b4b2b4;stop-opacity:1;" offset="0.332031"/><stop style="stop-color:#b3b1b3;stop-opacity:1;" offset="0.335938"/><stop style="stop-color:#b2b0b2;stop-opacity:1;" offset="0.339844"/><stop style="stop-color:#b1afb1;stop-opacity:1;" offset="0.34375"/><stop style="stop-color:#b0aeb0;stop-opacity:1;" offset="0.347656"/><stop style="stop-color:#afadaf;stop-opacity:1;" offset="0.351562"/><stop style="stop-color:#aeacae;stop-opacity:1;" offset="0.355469"/><stop style="stop-color:#adabad;stop-opacity:1;" offset="0.359375"/><stop style="stop-color:#acaaac;stop-opacity:1;" offset="0.363281"/><stop style="stop-color:#aba9ab;stop-opacity:1;" offset="0.367187"/><stop style="stop-color:#aaa8aa;stop-opacity:1;" offset="0.371094"/><stop style="stop-color:#a9a7a9;stop-opacity:1;" offset="0.375"/><stop style="stop-color:#a8a6a8;stop-opacity:1;" offset="0.378906"/><stop style="stop-color:#a7a5a7;stop-opacity:1;" offset="0.382813"/><stop style="stop-color:#a6a4a6;stop-opacity:1;" offset="0.386719"/><stop style="stop-color:#a5a3a5;stop-opacity:1;" offset="0.390625"/><stop style="stop-color:#a4a2a4;stop-opacity:1;" offset="0.394531"/><stop style="stop-color:#a3a1a3;stop-opacity:1;" offset="0.398438"/><stop style="stop-color:#a2a0a2;stop-opacity:1;" offset="0.402344"/><stop style="stop-color:#a19fa1;stop-opacity:1;" offset="0.40625"/><stop style="stop-color:#a09ea0;stop-opacity:1;" offset="0.410156"/><stop style="stop-color:#9f9d9f;stop-opacity:1;" offset="0.414062"/><stop style="stop-color:#9e9c9e;stop-opacity:1;" offset="0.417969"/><stop style="stop-color:#9d9b9d;stop-opacity:1;" offset="0.421875"/><stop style="stop-color:#9c9a9c;stop-opacity:1;" offset="0.425781"/><stop style="stop-color:#9b999b;stop-opacity:1;" offset="0.429688"/><stop style="stop-color:#9a989a;stop-opacity:1;" offset="0.433594"/><stop style="stop-color:#999799;stop-opacity:1;" offset="0.4375"/><stop style="stop-color:#989698;stop-opacity:1;" offset="0.441406"/><stop style="stop-color:#979597;stop-opacity:1;" offset="0.445312"/><stop style="stop-color:#969496;stop-opacity:1;" offset="0.449219"/><stop style="stop-color:#959395;stop-opacity:1;" offset="0.453125"/><stop style="stop-color:#949294;stop-opacity:1;" offset="0.457031"/><stop style="stop-color:#939193;stop-opacity:1;" offset="0.460938"/><stop style="stop-color:#929092;stop-opacity:1;" offset="0.464844"/><stop style="stop-color:#918f91;stop-opacity:1;" offset="0.46875"/><stop style="stop-color:#908e90;stop-opacity:1;" offset="0.472656"/><stop style="stop-color:#908d8f;stop-opacity:1;" offset="0.476562"/><stop style="stop-color:#8f8c8e;stop-opacity:1;" offset="0.480469"/><stop style="stop-color:#8e8b8d;stop-opacity:1;" offset="0.484375"/><stop style="stop-color:#8d8a8c;stop-opacity:1;" offset="0.488281"/><stop style="stop-color:#8c898b;stop-opacity:1;" offset="0.492188"/><stop style="stop-color:#8b888a;stop-opacity:1;" offset="0.496094"/><stop style="stop-color:#8a8789;stop-opacity:1;" offset="0.5"/><stop style="stop-color:#898688;stop-opacity:1;" offset="0.503906"/><stop style="stop-color:#888587;stop-opacity:1;" offset="0.507812"/><stop style="stop-color:#878486;stop-opacity:1;" offset="0.511719"/><stop style="stop-color:#868385;stop-opacity:1;" offset="0.515625"/><stop style="stop-color:#858284;stop-opacity:1;" offset="0.519531"/><stop style="stop-color:#848183;stop-opacity:1;" offset="0.523437"/><stop style="stop-color:#838082;stop-opacity:1;" offset="0.527344"/><stop style="stop-color:#827f81;stop-opacity:1;" offset="0.53125"/><stop style="stop-color:#817e80;stop-opacity:1;" offset="0.535156"/><stop style="stop-color:#807d7f;stop-opacity:1;" offset="0.539063"/><stop style="stop-color:#7f7c7e;stop-opacity:1;" offset="0.542969"/><stop style="stop-color:#7e7b7d;stop-opacity:1;" offset="0.546875"/><stop style="stop-color:#7d7a7c;stop-opacity:1;" offset="0.550781"/><stop style="stop-color:#7c797b;stop-opacity:1;" offset="0.554688"/><stop style="stop-color:#7b787a;stop-opacity:1;" offset="0.558594"/><stop style="stop-color:#7a7779;stop-opacity:1;" offset="0.5625"/><stop style="stop-color:#797678;stop-opacity:1;" offset="0.566406"/><stop style="stop-color:#787577;stop-opacity:1;" offset="0.570312"/><stop style="stop-color:#777476;stop-opacity:1;" offset="0.574219"/><stop style="stop-color:#767375;stop-opacity:1;" offset="0.578125"/><stop style="stop-color:#757274;stop-opacity:1;" offset="0.582031"/><stop style="stop-color:#747173;stop-opacity:1;" offset="0.585938"/><stop style="stop-color:#737072;stop-opacity:1;" offset="0.589844"/><stop style="stop-color:#726f71;stop-opacity:1;" offset="0.59375"/><stop style="stop-color:#716e70;stop-opacity:1;" offset="0.597656"/><stop style="stop-color:#706d6f;stop-opacity:1;" offset="0.601563"/><stop style="stop-color:#6f6c6e;stop-opacity:1;" offset="0.605469"/><stop style="stop-color:#6e6b6d;stop-opacity:1;" offset="0.609375"/><stop style="stop-color:#6d6a6c;stop-opacity:1;" offset="0.613281"/><stop style="stop-color:#6c696b;stop-opacity:1;" offset="0.617188"/><stop style="stop-color:#6b686a;stop-opacity:1;" offset="0.621094"/><stop style="stop-color:#6a6769;stop-opacity:1;" offset="0.625"/><stop style="stop-color:#696668;stop-opacity:1;" offset="0.628906"/><stop style="stop-color:#686567;stop-opacity:1;" offset="0.632812"/><stop style="stop-color:#676466;stop-opacity:1;" offset="0.636719"/><stop style="stop-color:#666365;stop-opacity:1;" offset="0.640625"/><stop style="stop-color:#656264;stop-opacity:1;" offset="0.644531"/><stop style="stop-color:#646163;stop-opacity:1;" offset="0.648438"/><stop style="stop-color:#636062;stop-opacity:1;" offset="0.652344"/><stop style="stop-color:#625f61;stop-opacity:1;" offset="0.65625"/><stop style="stop-color:#615e60;stop-opacity:1;" offset="0.660156"/><stop style="stop-color:#605d5f;stop-opacity:1;" offset="0.664063"/><stop style="stop-color:#5f5c5e;stop-opacity:1;" offset="0.667969"/><stop style="stop-color:#5f5b5d;stop-opacity:1;" offset="0.671875"/><stop style="stop-color:#5e5a5c;stop-opacity:1;" offset="0.675781"/><stop style="stop-color:#5d595b;stop-opacity:1;" offset="0.679688"/><stop style="stop-color:#5c585a;stop-opacity:1;" offset="0.683594"/><stop style="stop-color:#5b5759;stop-opacity:1;" offset="0.6875"/><stop style="stop-color:#5a5658;stop-opacity:1;" offset="0.691406"/><stop style="stop-color:#595557;stop-opacity:1;" offset="0.695313"/><stop style="stop-color:#585456;stop-opacity:1;" offset="0.699219"/><stop style="stop-color:#575355;stop-opacity:1;" offset="0.703125"/><stop style="stop-color:#565254;stop-opacity:1;" offset="0.707031"/><stop style="stop-color:#555153;stop-opacity:1;" offset="0.710938"/><stop style="stop-color:#545052;stop-opacity:1;" offset="0.714844"/><stop style="stop-color:#534f51;stop-opacity:1;" offset="0.71875"/><stop style="stop-color:#524e50;stop-opacity:1;" offset="0.722656"/><stop style="stop-color:#514d4f;stop-opacity:1;" offset="0.726562"/><stop style="stop-color:#504c4e;stop-opacity:1;" offset="0.730469"/><stop style="stop-color:#4f4b4d;stop-opacity:1;" offset="0.734375"/><stop style="stop-color:#4e4a4c;stop-opacity:1;" offset="0.738281"/><stop style="stop-color:#4d494b;stop-opacity:1;" offset="0.742187"/><stop style="stop-color:#4c484a;stop-opacity:1;" offset="0.746094"/><stop style="stop-color:#4b4749;stop-opacity:1;" offset="0.75"/><stop style="stop-color:#4a4648;stop-opacity:1;" offset="0.753906"/><stop style="stop-color:#494547;stop-opacity:1;" offset="0.757813"/><stop style="stop-color:#484446;stop-opacity:1;" offset="0.761719"/><stop style="stop-color:#474345;stop-opacity:1;" offset="0.765625"/><stop style="stop-color:#464244;stop-opacity:1;" offset="0.769531"/><stop style="stop-color:#454143;stop-opacity:1;" offset="0.773438"/><stop style="stop-color:#444042;stop-opacity:1;" offset="0.777344"/><stop style="stop-color:#433f40;stop-opacity:1;" offset="0.78125"/><stop style="stop-color:#423e3f;stop-opacity:1;" offset="0.785156"/><stop style="stop-color:#413d3e;stop-opacity:1;" offset="0.789062"/><stop style="stop-color:#403c3d;stop-opacity:1;" offset="0.792969"/><stop style="stop-color:#3f3b3c;stop-opacity:1;" offset="0.796875"/><stop style="stop-color:#3e3a3b;stop-opacity:1;" offset="0.800781"/><stop style="stop-color:#3d393a;stop-opacity:1;" offset="0.804687"/><stop style="stop-color:#3c3839;stop-opacity:1;" offset="0.808594"/><stop style="stop-color:#3b3738;stop-opacity:1;" offset="0.8125"/><stop style="stop-color:#3a3637;stop-opacity:1;" offset="0.816406"/><stop style="stop-color:#393536;stop-opacity:1;" offset="0.820312"/><stop style="stop-color:#383435;stop-opacity:1;" offset="0.824219"/><stop style="stop-color:#373334;stop-opacity:1;" offset="0.828125"/><stop style="stop-color:#363233;stop-opacity:1;" offset="0.832031"/><stop style="stop-color:#353132;stop-opacity:1;" offset="0.835937"/><stop style="stop-color:#343031;stop-opacity:1;" offset="0.839844"/><stop style="stop-color:#332f30;stop-opacity:1;" offset="0.84375"/><stop style="stop-color:#322e2f;stop-opacity:1;" offset="0.847656"/><stop style="stop-color:#312d2e;stop-opacity:1;" offset="0.851562"/><stop style="stop-color:#302c2d;stop-opacity:1;" offset="0.855469"/><stop style="stop-color:#2f2b2c;stop-opacity:1;" offset="0.859375"/><stop style="stop-color:#2e2a2b;stop-opacity:1;" offset="0.863281"/><stop style="stop-color:#2e292a;stop-opacity:1;" offset="0.867188"/><stop style="stop-color:#2d2829;stop-opacity:1;" offset="0.871094"/><stop style="stop-color:#2c2728;stop-opacity:1;" offset="0.875"/><stop style="stop-color:#2b2627;stop-opacity:1;" offset="0.878906"/><stop style="stop-color:#2a2526;stop-opacity:1;" offset="0.882812"/><stop style="stop-color:#292425;stop-opacity:1;" offset="0.886719"/><stop style="stop-color:#282324;stop-opacity:1;" offset="0.890625"/><stop style="stop-color:#272223;stop-opacity:1;" offset="0.894531"/><stop style="stop-color:#262122;stop-opacity:1;" offset="0.898437"/><stop style="stop-color:#252021;stop-opacity:1;" offset="0.902344"/><stop style="stop-color:#241f20;stop-opacity:1;" offset="0.90625"/><stop style="stop-color:#231e1f;stop-opacity:1;" offset="0.910156"/><stop style="stop-color:#221d1e;stop-opacity:1;" offset="0.914062"/><stop style="stop-color:#211c1d;stop-opacity:1;" offset="0.917969"/><stop style="stop-color:#201b1c;stop-opacity:1;" offset="0.921875"/><stop style="stop-color:#1f1a1b;stop-opacity:1;" offset="0.925781"/><stop style="stop-color:#1e191a;stop-opacity:1;" offset="0.929688"/><stop style="stop-color:#1d1819;stop-opacity:1;" offset="0.933594"/><stop style="stop-color:#1c1718;stop-opacity:1;" offset="0.9375"/><stop style="stop-color:#1b1617;stop-opacity:1;" offset="0.941406"/><stop style="stop-color:#1a1516;stop-opacity:1;" offset="0.945312"/><stop style="stop-color:#191415;stop-opacity:1;" offset="0.949219"/><stop style="stop-color:#181314;stop-opacity:1;" offset="0.953125"/><stop style="stop-color:#171213;stop-opacity:1;" offset="0.957031"/><stop style="stop-color:#161112;stop-opacity:1;" offset="0.960937"/><stop style="stop-color:#151011;stop-opacity:1;" offset="0.964844"/><stop style="stop-color:#140f10;stop-opacity:1;" offset="0.96875"/><stop style="stop-color:#130e0f;stop-opacity:1;" offset="0.972656"/><stop style="stop-color:#120d0e;stop-opacity:1;" offset="0.976563"/><stop style="stop-color:#110c0d;stop-opacity:1;" offset="0.980469"/><stop style="stop-color:#100b0c;stop-opacity:1;" offset="0.984375"/><stop style="stop-color:#0f0a0b;stop-opacity:1;" offset="0.988281"/><stop style="stop-color:#0e090a;stop-opacity:1;" offset="0.992188"/><stop style="stop-color:#0d0809;stop-opacity:1;" offset="0.996094"/><stop style="stop-color:#0c0708;stop-opacity:1;" offset="1"/></linearGradient></defs><g id="de1524f7b0"><g clip-rule="nonzero" clip-path="url(#02cb8a0974)"><g clip-rule="nonzero" clip-path="url(#8a92655a75)"><path style=" stroke:none;fill-rule:nonzero;fill:url(#7c8f40d512);" d="M 25.039062 46.011719 L 25.039062 7.222656 L 342.445312 7.222656 L 342.445312 46.011719 Z M 25.039062 46.011719 "/></g></g></g></svg>